<mxfile host="app.diagrams.net" modified="2023-07-12T07:36:36.232Z" agent="Mozilla/5.0 (Macintosh; Intel Mac OS X 10_15_7) AppleWebKit/537.36 (KHTML, like Gecko) Chrome/99.0.4844.88 Safari/537.36" etag="OODGg7K0lBDpz5XiqJuU" version="21.6.2" type="device">
  <diagram name="Page-1" id="2YBvvXClWsGukQMizWep">
    <mxGraphModel dx="954" dy="652" grid="1" gridSize="10" guides="1" tooltips="1" connect="1" arrows="1" fold="1" page="1" pageScale="1" pageWidth="850" pageHeight="1100" math="0" shadow="0">
      <root>
        <mxCell id="0" />
        <mxCell id="1" parent="0" />
        <mxCell id="dpWOqUeGicR4GXBdAQfl-8" value="" style="rounded=0;whiteSpace=wrap;html=1;dashed=1;" vertex="1" parent="1">
          <mxGeometry x="360" y="30" width="270" height="60" as="geometry" />
        </mxCell>
        <mxCell id="dpWOqUeGicR4GXBdAQfl-7" value="" style="rounded=0;whiteSpace=wrap;html=1;dashed=1;" vertex="1" parent="1">
          <mxGeometry x="70" y="30" width="270" height="60" as="geometry" />
        </mxCell>
        <mxCell id="aM9ryv3xv72pqoxQDRHE-1" value="Investor 1" style="shape=umlLifeline;perimeter=lifelinePerimeter;whiteSpace=wrap;html=1;container=0;dropTarget=0;collapsible=0;recursiveResize=0;outlineConnect=0;portConstraint=eastwest;newEdgeStyle={&quot;edgeStyle&quot;:&quot;elbowEdgeStyle&quot;,&quot;elbow&quot;:&quot;vertical&quot;,&quot;curved&quot;:0,&quot;rounded&quot;:0};" parent="1" vertex="1">
          <mxGeometry x="80" y="40" width="100" height="600" as="geometry" />
        </mxCell>
        <mxCell id="aM9ryv3xv72pqoxQDRHE-2" value="" style="html=1;points=[];perimeter=orthogonalPerimeter;outlineConnect=0;targetShapes=umlLifeline;portConstraint=eastwest;newEdgeStyle={&quot;edgeStyle&quot;:&quot;elbowEdgeStyle&quot;,&quot;elbow&quot;:&quot;vertical&quot;,&quot;curved&quot;:0,&quot;rounded&quot;:0};" parent="aM9ryv3xv72pqoxQDRHE-1" vertex="1">
          <mxGeometry x="45" y="70" width="10" height="220" as="geometry" />
        </mxCell>
        <mxCell id="dpWOqUeGicR4GXBdAQfl-31" value="" style="html=1;points=[];perimeter=orthogonalPerimeter;outlineConnect=0;targetShapes=umlLifeline;portConstraint=eastwest;newEdgeStyle={&quot;edgeStyle&quot;:&quot;elbowEdgeStyle&quot;,&quot;elbow&quot;:&quot;vertical&quot;,&quot;curved&quot;:0,&quot;rounded&quot;:0};" vertex="1" parent="aM9ryv3xv72pqoxQDRHE-1">
          <mxGeometry x="45" y="350" width="10" height="150" as="geometry" />
        </mxCell>
        <mxCell id="aM9ryv3xv72pqoxQDRHE-5" value="Custodian 1" style="shape=umlLifeline;perimeter=lifelinePerimeter;whiteSpace=wrap;html=1;container=0;dropTarget=0;collapsible=0;recursiveResize=0;outlineConnect=0;portConstraint=eastwest;newEdgeStyle={&quot;edgeStyle&quot;:&quot;elbowEdgeStyle&quot;,&quot;elbow&quot;:&quot;vertical&quot;,&quot;curved&quot;:0,&quot;rounded&quot;:0};" parent="1" vertex="1">
          <mxGeometry x="230" y="40" width="100" height="600" as="geometry" />
        </mxCell>
        <mxCell id="aM9ryv3xv72pqoxQDRHE-6" value="" style="html=1;points=[];perimeter=orthogonalPerimeter;outlineConnect=0;targetShapes=umlLifeline;portConstraint=eastwest;newEdgeStyle={&quot;edgeStyle&quot;:&quot;elbowEdgeStyle&quot;,&quot;elbow&quot;:&quot;vertical&quot;,&quot;curved&quot;:0,&quot;rounded&quot;:0};" parent="aM9ryv3xv72pqoxQDRHE-5" vertex="1">
          <mxGeometry x="45" y="120" width="10" height="90" as="geometry" />
        </mxCell>
        <mxCell id="dpWOqUeGicR4GXBdAQfl-43" value="" style="html=1;points=[];perimeter=orthogonalPerimeter;outlineConnect=0;targetShapes=umlLifeline;portConstraint=eastwest;newEdgeStyle={&quot;edgeStyle&quot;:&quot;elbowEdgeStyle&quot;,&quot;elbow&quot;:&quot;vertical&quot;,&quot;curved&quot;:0,&quot;rounded&quot;:0};" vertex="1" parent="aM9ryv3xv72pqoxQDRHE-5">
          <mxGeometry x="45" y="410" width="10" height="50" as="geometry" />
        </mxCell>
        <mxCell id="dpWOqUeGicR4GXBdAQfl-1" value="Investor 2" style="shape=umlLifeline;perimeter=lifelinePerimeter;whiteSpace=wrap;html=1;container=0;dropTarget=0;collapsible=0;recursiveResize=0;outlineConnect=0;portConstraint=eastwest;newEdgeStyle={&quot;edgeStyle&quot;:&quot;elbowEdgeStyle&quot;,&quot;elbow&quot;:&quot;vertical&quot;,&quot;curved&quot;:0,&quot;rounded&quot;:0};" vertex="1" parent="1">
          <mxGeometry x="370" y="40" width="100" height="600" as="geometry" />
        </mxCell>
        <mxCell id="dpWOqUeGicR4GXBdAQfl-2" value="" style="html=1;points=[];perimeter=orthogonalPerimeter;outlineConnect=0;targetShapes=umlLifeline;portConstraint=eastwest;newEdgeStyle={&quot;edgeStyle&quot;:&quot;elbowEdgeStyle&quot;,&quot;elbow&quot;:&quot;vertical&quot;,&quot;curved&quot;:0,&quot;rounded&quot;:0};" vertex="1" parent="dpWOqUeGicR4GXBdAQfl-1">
          <mxGeometry x="45" y="170" width="10" height="70" as="geometry" />
        </mxCell>
        <mxCell id="dpWOqUeGicR4GXBdAQfl-34" value="" style="html=1;points=[];perimeter=orthogonalPerimeter;outlineConnect=0;targetShapes=umlLifeline;portConstraint=eastwest;newEdgeStyle={&quot;edgeStyle&quot;:&quot;elbowEdgeStyle&quot;,&quot;elbow&quot;:&quot;vertical&quot;,&quot;curved&quot;:0,&quot;rounded&quot;:0};" vertex="1" parent="dpWOqUeGicR4GXBdAQfl-1">
          <mxGeometry x="45" y="380" width="10" height="180" as="geometry" />
        </mxCell>
        <mxCell id="dpWOqUeGicR4GXBdAQfl-3" value="Smart Collateral&lt;br&gt;Contract" style="shape=umlLifeline;perimeter=lifelinePerimeter;whiteSpace=wrap;html=1;container=0;dropTarget=0;collapsible=0;recursiveResize=0;outlineConnect=0;portConstraint=eastwest;newEdgeStyle={&quot;edgeStyle&quot;:&quot;elbowEdgeStyle&quot;,&quot;elbow&quot;:&quot;vertical&quot;,&quot;curved&quot;:0,&quot;rounded&quot;:0};" vertex="1" parent="1">
          <mxGeometry x="670" y="40" width="100" height="600" as="geometry" />
        </mxCell>
        <mxCell id="dpWOqUeGicR4GXBdAQfl-4" value="" style="html=1;points=[];perimeter=orthogonalPerimeter;outlineConnect=0;targetShapes=umlLifeline;portConstraint=eastwest;newEdgeStyle={&quot;edgeStyle&quot;:&quot;elbowEdgeStyle&quot;,&quot;elbow&quot;:&quot;vertical&quot;,&quot;curved&quot;:0,&quot;rounded&quot;:0};" vertex="1" parent="dpWOqUeGicR4GXBdAQfl-3">
          <mxGeometry x="45" y="60" width="10" height="510" as="geometry" />
        </mxCell>
        <mxCell id="dpWOqUeGicR4GXBdAQfl-5" value="Custodian 2" style="shape=umlLifeline;perimeter=lifelinePerimeter;whiteSpace=wrap;html=1;container=0;dropTarget=0;collapsible=0;recursiveResize=0;outlineConnect=0;portConstraint=eastwest;newEdgeStyle={&quot;edgeStyle&quot;:&quot;elbowEdgeStyle&quot;,&quot;elbow&quot;:&quot;vertical&quot;,&quot;curved&quot;:0,&quot;rounded&quot;:0};" vertex="1" parent="1">
          <mxGeometry x="520" y="40" width="100" height="600" as="geometry" />
        </mxCell>
        <mxCell id="dpWOqUeGicR4GXBdAQfl-6" value="" style="html=1;points=[];perimeter=orthogonalPerimeter;outlineConnect=0;targetShapes=umlLifeline;portConstraint=eastwest;newEdgeStyle={&quot;edgeStyle&quot;:&quot;elbowEdgeStyle&quot;,&quot;elbow&quot;:&quot;vertical&quot;,&quot;curved&quot;:0,&quot;rounded&quot;:0};" vertex="1" parent="dpWOqUeGicR4GXBdAQfl-5">
          <mxGeometry x="45" y="200" width="10" height="50" as="geometry" />
        </mxCell>
        <mxCell id="dpWOqUeGicR4GXBdAQfl-50" value="" style="html=1;points=[];perimeter=orthogonalPerimeter;outlineConnect=0;targetShapes=umlLifeline;portConstraint=eastwest;newEdgeStyle={&quot;edgeStyle&quot;:&quot;elbowEdgeStyle&quot;,&quot;elbow&quot;:&quot;vertical&quot;,&quot;curved&quot;:0,&quot;rounded&quot;:0};" vertex="1" parent="dpWOqUeGicR4GXBdAQfl-5">
          <mxGeometry x="45" y="510" width="10" height="50" as="geometry" />
        </mxCell>
        <mxCell id="dpWOqUeGicR4GXBdAQfl-9" value="" style="endArrow=classic;html=1;rounded=0;" edge="1" parent="1" target="dpWOqUeGicR4GXBdAQfl-3">
          <mxGeometry width="50" height="50" relative="1" as="geometry">
            <mxPoint x="132.5" y="120" as="sourcePoint" />
            <mxPoint x="427.5" y="120" as="targetPoint" />
          </mxGeometry>
        </mxCell>
        <mxCell id="dpWOqUeGicR4GXBdAQfl-10" value="Initiation request with terms" style="edgeLabel;html=1;align=center;verticalAlign=middle;resizable=0;points=[];" vertex="1" connectable="0" parent="dpWOqUeGicR4GXBdAQfl-9">
          <mxGeometry x="0.2555" y="2" relative="1" as="geometry">
            <mxPoint x="20" as="offset" />
          </mxGeometry>
        </mxCell>
        <mxCell id="dpWOqUeGicR4GXBdAQfl-11" value="" style="endArrow=classic;html=1;rounded=0;" edge="1" parent="1">
          <mxGeometry width="50" height="50" relative="1" as="geometry">
            <mxPoint x="131" y="140" as="sourcePoint" />
            <mxPoint x="718.5" y="140" as="targetPoint" />
          </mxGeometry>
        </mxCell>
        <mxCell id="dpWOqUeGicR4GXBdAQfl-12" value="Add custodian info and collateral asset list and order" style="edgeLabel;html=1;align=center;verticalAlign=middle;resizable=0;points=[];" vertex="1" connectable="0" parent="dpWOqUeGicR4GXBdAQfl-11">
          <mxGeometry x="0.2555" y="2" relative="1" as="geometry">
            <mxPoint x="20" as="offset" />
          </mxGeometry>
        </mxCell>
        <mxCell id="dpWOqUeGicR4GXBdAQfl-13" value="" style="endArrow=classic;html=1;rounded=0;" edge="1" parent="1">
          <mxGeometry width="50" height="50" relative="1" as="geometry">
            <mxPoint x="132.5" y="170" as="sourcePoint" />
            <mxPoint x="277.5" y="170" as="targetPoint" />
          </mxGeometry>
        </mxCell>
        <mxCell id="dpWOqUeGicR4GXBdAQfl-14" value="Transfer collateral to seed" style="edgeLabel;html=1;align=center;verticalAlign=middle;resizable=0;points=[];" vertex="1" connectable="0" parent="dpWOqUeGicR4GXBdAQfl-13">
          <mxGeometry x="0.0828" y="2" relative="1" as="geometry">
            <mxPoint x="-11" as="offset" />
          </mxGeometry>
        </mxCell>
        <mxCell id="dpWOqUeGicR4GXBdAQfl-15" value="Send Confirmation" style="endArrow=classic;html=1;rounded=0;" edge="1" parent="1">
          <mxGeometry width="50" height="50" relative="1" as="geometry">
            <mxPoint x="279.5" y="180" as="sourcePoint" />
            <mxPoint x="719.5" y="180" as="targetPoint" />
          </mxGeometry>
        </mxCell>
        <mxCell id="dpWOqUeGicR4GXBdAQfl-16" value="" style="endArrow=classic;html=1;rounded=0;" edge="1" parent="1">
          <mxGeometry width="50" height="50" relative="1" as="geometry">
            <mxPoint x="425" y="220" as="sourcePoint" />
            <mxPoint x="719.5" y="220" as="targetPoint" />
          </mxGeometry>
        </mxCell>
        <mxCell id="dpWOqUeGicR4GXBdAQfl-17" value="Accept terms&amp;nbsp; and add custodian/collateral info" style="edgeLabel;html=1;align=center;verticalAlign=middle;resizable=0;points=[];" vertex="1" connectable="0" parent="dpWOqUeGicR4GXBdAQfl-16">
          <mxGeometry x="-0.3616" y="4" relative="1" as="geometry">
            <mxPoint x="41" y="4" as="offset" />
          </mxGeometry>
        </mxCell>
        <mxCell id="dpWOqUeGicR4GXBdAQfl-18" value="" style="endArrow=classic;html=1;rounded=0;" edge="1" parent="1">
          <mxGeometry width="50" height="50" relative="1" as="geometry">
            <mxPoint x="425" y="250" as="sourcePoint" />
            <mxPoint x="560" y="250" as="targetPoint" />
          </mxGeometry>
        </mxCell>
        <mxCell id="dpWOqUeGicR4GXBdAQfl-19" value="Transfer collateral to seed" style="edgeLabel;html=1;align=center;verticalAlign=middle;resizable=0;points=[];" vertex="1" connectable="0" parent="dpWOqUeGicR4GXBdAQfl-18">
          <mxGeometry x="-0.1704" y="2" relative="1" as="geometry">
            <mxPoint x="9" as="offset" />
          </mxGeometry>
        </mxCell>
        <mxCell id="dpWOqUeGicR4GXBdAQfl-20" value="Send Confirmation" style="endArrow=classic;html=1;rounded=0;" edge="1" parent="1" target="dpWOqUeGicR4GXBdAQfl-3">
          <mxGeometry width="50" height="50" relative="1" as="geometry">
            <mxPoint x="580" y="260" as="sourcePoint" />
            <mxPoint x="840" y="260" as="targetPoint" />
          </mxGeometry>
        </mxCell>
        <mxCell id="dpWOqUeGicR4GXBdAQfl-21" value="" style="endArrow=classic;html=1;rounded=0;" edge="1" parent="1">
          <mxGeometry width="50" height="50" relative="1" as="geometry">
            <mxPoint x="715" y="290" as="sourcePoint" />
            <mxPoint x="135" y="290" as="targetPoint" />
          </mxGeometry>
        </mxCell>
        <mxCell id="dpWOqUeGicR4GXBdAQfl-24" value="Notify" style="edgeLabel;html=1;align=center;verticalAlign=middle;resizable=0;points=[];" vertex="1" connectable="0" parent="dpWOqUeGicR4GXBdAQfl-21">
          <mxGeometry x="0.2241" y="2" relative="1" as="geometry">
            <mxPoint as="offset" />
          </mxGeometry>
        </mxCell>
        <mxCell id="dpWOqUeGicR4GXBdAQfl-25" value="" style="endArrow=classic;html=1;rounded=0;" edge="1" parent="1" target="dpWOqUeGicR4GXBdAQfl-3">
          <mxGeometry width="50" height="50" relative="1" as="geometry">
            <mxPoint x="140" y="310" as="sourcePoint" />
            <mxPoint x="425.5" y="310" as="targetPoint" />
          </mxGeometry>
        </mxCell>
        <mxCell id="dpWOqUeGicR4GXBdAQfl-26" value="Acknowledge" style="edgeLabel;html=1;align=center;verticalAlign=middle;resizable=0;points=[];" vertex="1" connectable="0" parent="dpWOqUeGicR4GXBdAQfl-25">
          <mxGeometry x="0.2347" y="-2" relative="1" as="geometry">
            <mxPoint as="offset" />
          </mxGeometry>
        </mxCell>
        <mxCell id="dpWOqUeGicR4GXBdAQfl-28" value="&lt;b&gt;Initiation&lt;/b&gt;" style="text;html=1;align=center;verticalAlign=middle;resizable=0;points=[];autosize=1;strokeColor=none;fillColor=none;rotation=-90;" vertex="1" parent="1">
          <mxGeometry x="30" y="190" width="70" height="30" as="geometry" />
        </mxCell>
        <mxCell id="dpWOqUeGicR4GXBdAQfl-29" value="&lt;b&gt;Setllement&lt;/b&gt;" style="text;html=1;align=center;verticalAlign=middle;resizable=0;points=[];autosize=1;strokeColor=none;fillColor=none;rotation=-90;" vertex="1" parent="1">
          <mxGeometry x="25" y="430" width="80" height="30" as="geometry" />
        </mxCell>
        <mxCell id="dpWOqUeGicR4GXBdAQfl-30" value="" style="endArrow=none;dashed=1;html=1;dashPattern=1 3;strokeWidth=2;rounded=0;" edge="1" parent="1">
          <mxGeometry width="50" height="50" relative="1" as="geometry">
            <mxPoint x="50" y="360" as="sourcePoint" />
            <mxPoint x="790" y="360" as="targetPoint" />
          </mxGeometry>
        </mxCell>
        <mxCell id="dpWOqUeGicR4GXBdAQfl-32" value="" style="endArrow=classic;html=1;rounded=0;" edge="1" parent="1" source="dpWOqUeGicR4GXBdAQfl-3" target="dpWOqUeGicR4GXBdAQfl-31">
          <mxGeometry width="50" height="50" relative="1" as="geometry">
            <mxPoint x="380" y="310" as="sourcePoint" />
            <mxPoint x="430" y="260" as="targetPoint" />
            <Array as="points">
              <mxPoint x="580" y="400" />
            </Array>
          </mxGeometry>
        </mxCell>
        <mxCell id="dpWOqUeGicR4GXBdAQfl-33" value="Inform Settlement Date (optional)" style="edgeLabel;html=1;align=center;verticalAlign=middle;resizable=0;points=[];" vertex="1" connectable="0" parent="dpWOqUeGicR4GXBdAQfl-32">
          <mxGeometry x="-0.0881" y="-3" relative="1" as="geometry">
            <mxPoint x="1" as="offset" />
          </mxGeometry>
        </mxCell>
        <mxCell id="dpWOqUeGicR4GXBdAQfl-35" value="" style="endArrow=classic;html=1;rounded=0;" edge="1" parent="1" target="dpWOqUeGicR4GXBdAQfl-1">
          <mxGeometry width="50" height="50" relative="1" as="geometry">
            <mxPoint x="132.75" y="440" as="sourcePoint" />
            <mxPoint x="277.25" y="440" as="targetPoint" />
          </mxGeometry>
        </mxCell>
        <mxCell id="dpWOqUeGicR4GXBdAQfl-36" value="Transfer asset to Investor 2" style="edgeLabel;html=1;align=center;verticalAlign=middle;resizable=0;points=[];" vertex="1" connectable="0" parent="dpWOqUeGicR4GXBdAQfl-35">
          <mxGeometry x="-0.4706" y="4" relative="1" as="geometry">
            <mxPoint x="76" y="4" as="offset" />
          </mxGeometry>
        </mxCell>
        <mxCell id="dpWOqUeGicR4GXBdAQfl-37" value="" style="endArrow=classic;html=1;rounded=0;" edge="1" parent="1">
          <mxGeometry width="50" height="50" relative="1" as="geometry">
            <mxPoint x="414.5" y="520" as="sourcePoint" />
            <mxPoint x="130" y="520" as="targetPoint" />
          </mxGeometry>
        </mxCell>
        <mxCell id="dpWOqUeGicR4GXBdAQfl-38" value="Transfer asset to Investor 1" style="edgeLabel;html=1;align=center;verticalAlign=middle;resizable=0;points=[];" vertex="1" connectable="0" parent="dpWOqUeGicR4GXBdAQfl-37">
          <mxGeometry x="-0.4482" y="-4" relative="1" as="geometry">
            <mxPoint x="-51" y="-1" as="offset" />
          </mxGeometry>
        </mxCell>
        <mxCell id="dpWOqUeGicR4GXBdAQfl-39" value="" style="endArrow=classic;html=1;rounded=0;" edge="1" parent="1">
          <mxGeometry width="50" height="50" relative="1" as="geometry">
            <mxPoint x="425" y="450" as="sourcePoint" />
            <mxPoint x="720" y="450" as="targetPoint" />
          </mxGeometry>
        </mxCell>
        <mxCell id="dpWOqUeGicR4GXBdAQfl-41" value="Ackknowledge" style="edgeLabel;html=1;align=center;verticalAlign=middle;resizable=0;points=[];" vertex="1" connectable="0" parent="dpWOqUeGicR4GXBdAQfl-39">
          <mxGeometry x="-0.2678" y="2" relative="1" as="geometry">
            <mxPoint as="offset" />
          </mxGeometry>
        </mxCell>
        <mxCell id="dpWOqUeGicR4GXBdAQfl-40" value="" style="endArrow=classic;html=1;rounded=0;" edge="1" parent="1">
          <mxGeometry width="50" height="50" relative="1" as="geometry">
            <mxPoint x="130" y="540" as="sourcePoint" />
            <mxPoint x="720.5" y="540" as="targetPoint" />
          </mxGeometry>
        </mxCell>
        <mxCell id="dpWOqUeGicR4GXBdAQfl-42" value="Acknowledge" style="edgeLabel;html=1;align=center;verticalAlign=middle;resizable=0;points=[];" vertex="1" connectable="0" parent="dpWOqUeGicR4GXBdAQfl-40">
          <mxGeometry x="0.2244" y="1" relative="1" as="geometry">
            <mxPoint as="offset" />
          </mxGeometry>
        </mxCell>
        <mxCell id="dpWOqUeGicR4GXBdAQfl-44" value="" style="endArrow=classic;html=1;rounded=0;" edge="1" parent="1">
          <mxGeometry width="50" height="50" relative="1" as="geometry">
            <mxPoint x="710" y="480" as="sourcePoint" />
            <mxPoint x="290" y="480" as="targetPoint" />
          </mxGeometry>
        </mxCell>
        <mxCell id="dpWOqUeGicR4GXBdAQfl-45" value="Return collateral notification" style="edgeLabel;html=1;align=center;verticalAlign=middle;resizable=0;points=[];" vertex="1" connectable="0" parent="dpWOqUeGicR4GXBdAQfl-44">
          <mxGeometry x="-0.1143" y="-3" relative="1" as="geometry">
            <mxPoint as="offset" />
          </mxGeometry>
        </mxCell>
        <mxCell id="dpWOqUeGicR4GXBdAQfl-46" value="" style="endArrow=classic;html=1;rounded=0;" edge="1" parent="1">
          <mxGeometry width="50" height="50" relative="1" as="geometry">
            <mxPoint x="277.75" y="490" as="sourcePoint" />
            <mxPoint x="132.25" y="490" as="targetPoint" />
          </mxGeometry>
        </mxCell>
        <mxCell id="dpWOqUeGicR4GXBdAQfl-47" value="Return collateral" style="edgeLabel;html=1;align=center;verticalAlign=middle;resizable=0;points=[];" vertex="1" connectable="0" parent="dpWOqUeGicR4GXBdAQfl-46">
          <mxGeometry x="-0.0412" y="-3" relative="1" as="geometry">
            <mxPoint as="offset" />
          </mxGeometry>
        </mxCell>
        <mxCell id="dpWOqUeGicR4GXBdAQfl-48" value="" style="endArrow=classic;html=1;rounded=0;" edge="1" parent="1">
          <mxGeometry width="50" height="50" relative="1" as="geometry">
            <mxPoint x="720" y="570" as="sourcePoint" />
            <mxPoint x="580" y="570" as="targetPoint" />
          </mxGeometry>
        </mxCell>
        <mxCell id="dpWOqUeGicR4GXBdAQfl-49" value="Return collateral &lt;br&gt;notification" style="edgeLabel;html=1;align=center;verticalAlign=middle;resizable=0;points=[];" vertex="1" connectable="0" parent="dpWOqUeGicR4GXBdAQfl-48">
          <mxGeometry x="-0.1143" y="-3" relative="1" as="geometry">
            <mxPoint x="2" y="3" as="offset" />
          </mxGeometry>
        </mxCell>
        <mxCell id="dpWOqUeGicR4GXBdAQfl-53" value="" style="endArrow=classic;html=1;rounded=0;" edge="1" parent="1">
          <mxGeometry width="50" height="50" relative="1" as="geometry">
            <mxPoint x="567.75" y="580" as="sourcePoint" />
            <mxPoint x="422.25" y="580" as="targetPoint" />
          </mxGeometry>
        </mxCell>
        <mxCell id="dpWOqUeGicR4GXBdAQfl-54" value="Return collateral" style="edgeLabel;html=1;align=center;verticalAlign=middle;resizable=0;points=[];" vertex="1" connectable="0" parent="dpWOqUeGicR4GXBdAQfl-53">
          <mxGeometry x="-0.0412" y="-3" relative="1" as="geometry">
            <mxPoint as="offset" />
          </mxGeometry>
        </mxCell>
      </root>
    </mxGraphModel>
  </diagram>
</mxfile>
